<svg width="480" height="139" xmlns="http://www.w3.org/2000/svg">
 <style>.st0{fill:none}.st1{fill:#fff}.st2{font-family:Raleway; font-weight: 100;}.st6{fill:none;stroke:#000;stroke-width:3;stroke-miterlimit:10}</style>

 <g>
  <title>background</title>
  <rect fill="none" id="canvas_background" height="402" width="582" y="-1" x="-1"/>
 </g>
 <g>
  <title>Layer 1</title>
  <path id="svg_1" d="m448.07,-1l-9.62,17.24l-8.36,14.96l-60.16,107.8l-370.93,0l0,-140l449.07,0z"/>
  <path id="svg_2" d="m-1,139l479.92,0l0,0.01l-479.92,0l0,-0.01z" class="st0"/>
  <text id="svg_3" x="261.993988" y="65.233002" font-size="57" class="st1 st2">Arc</text>
  <text id="svg_4" x="17.691999" y="112.014999" font-size="54" class="st1 st2">Development</text>
  <path id="svg_5" d="m382.44,116.43l47.65,-85.23l8.36,-14.96m-68.62,122.76l-0.01,0.01l-7.82,13.99" class="st0"/>
  <path id="svg_6" fill="#0b72b9" d="m438.76,15.76l-56.42,100.91c-12.52,-10.83 -20.45,-26.82 -20.45,-44.67c0,-32.58 26.42,-59 59,-59c6.23,0 12.24,0.97 17.87,2.76z"/>
  <path id="svg_7" d="m479.89,72c0,32.58 -26.42,59 -59,59c-14.73,0 -28.21,-5.4 -38.55,-14.33l56.42,-100.91c23.85,7.57 41.13,29.89 41.13,56.24z"/>
  <path id="svg_8" d="m457,-17l-8.93,16l-9.62,17.24l-8.36,14.96l-60.16,107.8l-0.01,0.01l-8.92,15.99" class="st0"/>
  <rect id="svg_10" height="61.881182" width="114.356424" y="13.188124" x="236.683169" stroke-width="1.5" stroke="#000" fill="#000000"/>
  <path id="svg_12" d="m430.247506,102.297026" opacity="0.5" stroke-width="1.5" stroke="#000" fill="#000000"/>
  <path d="m422.952271,56.161098c0,0.671139 -0.540039,2.952171 -1.006714,4.697979c-0.612762,2.292351 -0.53009,3.072769 -1.342285,5.033546c-0.28714,0.693245 -0.393646,1.292854 -0.671143,1.677849c-0.438751,0.608727 -0.433868,1.440567 -0.671143,1.677849c-0.237274,0.237282 -0.559723,-0.076965 0,-1.342278c0.489471,-1.106491 1.307861,-1.195076 2.013428,-3.020126c0.617004,-1.595963 0.671143,-3.355701 1.342285,-4.02684c0,0 0.335571,0 0.335571,-0.671143c0,-0.335567 0.862274,-1.386902 1.342285,-2.684559c0.260315,-0.703739 -0.376312,-1.301567 0.335541,-2.01342c0.474579,-0.474571 0.671143,-0.671139 0.671143,-1.006706c0,-0.671143 0.671143,-1.677853 0.335571,-1.677853c-2.68457,0 -0.332306,3.956455 -0.671143,6.375828c-0.232727,1.661636 0.077087,2.357967 0,2.684559c-0.344788,1.46056 -0.671112,2.01342 -0.671112,3.020134c0,0 -0.113342,-1.028912 0.335541,-3.020134c0.537231,-2.383183 1.006714,-3.691265 1.006714,-5.033546c0,-0.671139 0,-1.342281 0,-1.342281c0,0.335571 0.202423,1.698414 0,2.684563c-0.513855,2.503433 -0.294861,2.979416 -1.006714,3.691265c-0.237274,0.237263 -0.433838,0.098286 -0.671112,0.335571c-0.474579,0.474571 -0.671143,-0.335571 -0.671143,-1.342278c0,-1.342281 0,-2.01342 0,-2.684559c0,-0.335571 0.483002,-0.613445 0.671143,-0.335571c1.013123,1.496399 -1.147278,3.160686 -1.677856,3.691269c-0.530579,0.530582 -1.006714,0.671139 -1.006714,1.00671l0,-0.335571l0,-1.00671" id="svg_14" fill-opacity="null" stroke-opacity="null" stroke-width="1.5" stroke="#000" fill="none"/>
  <text stroke="#000" transform="matrix(11.791563987731934,0,0,1,-3533.4550415391277,0) " xml:space="preserve" text-anchor="start" font-family="Helvetica, Arial, sans-serif" font-size="24" id="svg_15" y="65.258118" x="314.079746" stroke-opacity="null" stroke-width="0" fill="#fcf9f9"/>
  <text stroke="#000" transform="matrix(1.3696813583374023,0,0,1,-89.48189851650386,0) " xml:space="preserve" text-anchor="start" font-family="Helvetica, Arial, sans-serif" font-size="24" id="svg_18" y="68.86823" x="187.364813" fill-opacity="null" stroke-opacity="null" stroke-width="0" fill="#fcf9f9">Hello</text>
 </g>
</svg>
